<svg width="16" height="19" viewBox="0 0 16 19" fill="none" xmlns="http://www.w3.org/2000/svg">
<path d="M2.59666 8.15382H2.74666V8.00382V5.39952C2.74666 2.50385 5.1005 0.15 7.99618 0.15C10.8919 0.15 13.2533 2.51148 13.2533 5.40716V8.01146V8.16146H13.4033H15.0835C15.5047 8.16146 15.85 8.50671 15.85 8.92792V18.0621C15.85 18.4833 15.5047 18.8285 15.0835 18.8285H0.916468C0.495253 18.8285 0.15 18.4833 0.15 18.0621V8.92029C0.15 8.49907 0.495253 8.15382 0.916468 8.15382H2.59666ZM11.5628 8.16146H11.7128V8.01146V5.40716C11.7128 3.36155 10.0418 1.69057 7.99618 1.69057C5.95078 1.69057 4.27959 3.3537 4.27959 5.40716V8.01146V8.16146H4.42959H11.5628ZM14.1671 17.2956H14.3171V17.1456V9.83675V9.68675H14.1671H1.83294H1.68294V9.83675V17.1456V17.2956H1.83294H14.1671Z" fill="black" stroke="white" stroke-width="0.3"/>
</svg>
