<svg width="16" height="16" viewBox="0 0 16 16" fill="none" xmlns="http://www.w3.org/2000/svg">
<path d="M15.9357 13.1943L14.4212 4.19069C14.3767 3.61063 13.8861 3.15622 13.3043 3.15622H11.093V3.09278C11.093 1.38741 9.7056 0 8.00022 0C6.29485 0 4.90744 1.38741 4.90744 3.09278V3.15622H2.69613C2.11435 3.15622 1.62375 3.61059 1.57938 4.18947L0.0646279 13.1955C0.00931545 13.9166 0.259472 14.6345 0.750909 15.1651C1.24235 15.6957 1.939 16 2.66222 16H13.3382C14.0614 16 14.7581 15.6957 15.2495 15.1651C15.741 14.6345 15.9911 13.9166 15.9357 13.1943ZM5.84463 3.09278C5.84463 1.90419 6.81166 0.937187 8.00022 0.937187C9.18878 0.937187 10.1558 1.90422 10.1558 3.09278V3.15622H5.84463V3.09278ZM14.5619 14.5283C14.2426 14.873 13.8081 15.0628 13.3382 15.0628H2.66225C2.19238 15.0628 1.75782 14.873 1.4385 14.5283C1.11922 14.1836 0.963159 13.7357 0.999034 13.2684L2.51372 4.26234C2.52097 4.16759 2.6011 4.09341 2.69613 4.09341H4.90744V5.24762C4.90744 5.50641 5.11725 5.71622 5.37603 5.71622C5.63482 5.71622 5.84463 5.50641 5.84463 5.24762V4.09341H10.1558V5.24762C10.1558 5.50641 10.3656 5.71622 10.6244 5.71622C10.8832 5.71622 11.093 5.50641 11.093 5.24762V4.09341H13.3043C13.3993 4.09341 13.4795 4.16762 13.4868 4.26359L15.0014 13.2672C15.0373 13.7357 14.8812 14.1835 14.5619 14.5283Z" fill="black"/>
</svg>
