<svg width="19" height="16" viewBox="0 0 19 16" fill="none" xmlns="http://www.w3.org/2000/svg">
<path fill-rule="evenodd" clip-rule="evenodd" d="M5.79542 1.44885C3.44971 1.44885 1.53772 3.30726 1.45187 5.63165L1.4494 5.69864C1.44941 5.6996 1.44943 5.70056 1.44944 5.70152L1.44961 5.71274L1.44943 5.72396C1.44905 5.74772 1.44885 5.77155 1.44885 5.79542C1.44885 6.33112 1.54543 6.84261 1.72149 7.31453L1.72642 7.32773L1.73083 7.34112C2.4376 9.48709 4.36646 11.2846 6.23032 12.578C7.1482 13.2149 8.02075 13.7094 8.6639 14.0445C8.97864 14.2085 9.23717 14.3336 9.41756 14.418C9.59796 14.3336 9.85653 14.2084 10.1713 14.0444C10.8145 13.7093 11.6871 13.2148 12.6051 12.5778C14.469 11.2843 16.3979 9.48668 17.1045 7.34057L17.1089 7.32719L17.1138 7.31399C17.2898 6.84222 17.3863 6.33092 17.3863 5.79542C17.3863 5.77156 17.3861 5.74775 17.3857 5.724L17.3855 5.71278L17.3857 5.70157C17.3857 5.70061 17.3857 5.69964 17.3857 5.69868L17.3832 5.63165C17.2974 3.30726 15.3854 1.44885 13.0397 1.44885C11.8233 1.44885 10.7247 1.94755 9.93497 2.75349L9.41756 3.28151L8.90014 2.75349C8.11038 1.94755 7.01179 1.44885 5.79542 1.44885ZM9.41756 15.213C9.13442 15.8798 9.13423 15.8797 9.13401 15.8796L9.13345 15.8794L9.13185 15.8787L9.1268 15.8765L9.10942 15.869C9.09464 15.8626 9.07353 15.8534 9.04647 15.8413C8.99235 15.8173 8.91437 15.782 8.81549 15.7359C8.61781 15.6436 8.3362 15.5075 7.99445 15.3294C7.31198 14.9738 6.38441 14.4484 5.40431 13.7683C3.47549 12.4298 1.22133 10.4093 0.359074 7.80763C0.126641 7.17988 1.27442e-10 6.50162 1.27442e-10 5.79542C1.27442e-10 5.76755 0.000197157 5.73973 0.000590347 5.71195C0.000197847 5.68233 5.18278e-07 5.65266 1.27442e-10 5.62295C-6.04382e-07 5.58965 0.00214938 5.55708 0.00619428 5.52536C0.147509 2.44975 2.68522 0 5.79542 0C7.16572 0 8.42572 0.47626 9.41756 1.27116C10.4094 0.47626 11.6694 0 13.0397 0C16.1499 0 18.6876 2.44975 18.8289 5.52537C18.833 5.55707 18.8351 5.58964 18.8351 5.62293C18.8351 5.65267 18.8349 5.68237 18.8345 5.71202C18.8349 5.73978 18.8351 5.76758 18.8351 5.79542C18.8351 6.50134 18.7086 7.17934 18.4763 7.8069C17.6143 10.4088 15.36 12.4295 13.4311 13.7681C12.4509 14.4483 11.5233 14.9738 10.8408 15.3294C10.499 15.5074 10.2173 15.6436 10.0196 15.7359C9.92076 15.782 9.84277 15.8173 9.78865 15.8413C9.76158 15.8534 9.74047 15.8626 9.72569 15.869L9.70831 15.8765L9.70326 15.8787L9.70166 15.8794L9.70109 15.8796C9.70088 15.8797 9.70068 15.8798 9.41756 15.213ZM9.41756 15.213L9.70068 15.8798L9.41755 16L9.13442 15.8798L9.41756 15.213Z" fill="black"/>
</svg>
