<svg width="17" height="17" viewBox="0 0 17 17" fill="none" xmlns="http://www.w3.org/2000/svg">
<path d="M15.2292 2.12503H1.77083C0.794752 2.12503 0 3.01912 0 4.11724V12.8829C0 13.9809 0.794752 14.875 1.77083 14.875H15.2292C16.2052 14.875 17 13.9809 17 12.8829V4.11724C17 3.01912 16.2053 2.12503 15.2292 2.12503ZM16.2917 12.8828C16.2917 13.5418 15.815 14.0781 15.2292 14.0781H1.77083C1.18502 14.0781 0.708324 13.5418 0.708324 12.8828V4.11724C0.708324 3.45821 1.18502 2.92193 1.77083 2.92193H15.2292C15.815 2.92193 16.2917 3.45821 16.2917 4.11724V12.8828H16.2917Z" fill="black"/>
<path d="M6.72918 9.5625H2.47918C2.28368 9.5625 2.125 9.72118 2.125 9.91668C2.125 10.1122 2.28368 10.2708 2.47918 10.2708H6.72918C6.92468 10.2708 7.08336 10.1121 7.08336 9.91665C7.08336 9.72115 6.92468 9.5625 6.72918 9.5625Z" fill="black"/>
<path d="M6.72918 11.3333H2.47918C2.28368 11.3333 2.125 11.492 2.125 11.6875C2.125 11.883 2.28368 12.0417 2.47918 12.0417H6.72918C6.92468 12.0417 7.08336 11.883 7.08336 11.6875C7.08332 11.492 6.92468 11.3333 6.72918 11.3333Z" fill="black"/>
<path d="M13.8115 9.20832H13.1031C12.5173 9.20832 12.0406 9.68502 12.0406 10.2708V10.9791C12.0406 11.5649 12.5173 12.0416 13.1031 12.0416H13.8115C14.3973 12.0416 14.874 11.5649 14.874 10.9791V10.2708C14.874 9.68505 14.3973 9.20832 13.8115 9.20832ZM14.1656 10.9792C14.1656 11.1747 14.007 11.3334 13.8115 11.3334H13.1031C12.9076 11.3334 12.749 11.1747 12.749 10.9792V10.2709C12.749 10.0754 12.9076 9.91668 13.1031 9.91668H13.8115C14.007 9.91668 14.1656 10.0754 14.1656 10.2709V10.9792Z" fill="black"/>
<line x1="4.64434e-08" y1="5.875" x2="17" y2="5.875" stroke="black"/>
</svg>
