<svg width="20" height="20" viewBox="0 0 20 20" fill="none" xmlns="http://www.w3.org/2000/svg">
<path d="M19.9195 16.4929L18.0263 5.23836C17.9707 4.51328 17.3575 3.94527 16.6303 3.94527H13.8661V3.86598C13.8661 1.73426 12.1318 0 10.0001 0C7.86839 0 6.13413 1.73426 6.13413 3.86598V3.94527H3.36999C2.64277 3.94527 2.02952 4.51324 1.97405 5.23684L0.0806171 16.4944C0.0114765 17.3958 0.324172 18.2932 0.938469 18.9564C1.55277 19.6196 2.42359 20 3.32761 20H16.6726C17.5766 20 18.4474 19.6196 19.0617 18.9564C19.676 18.2931 19.9887 17.3958 19.9195 16.4929ZM7.30562 3.86598C7.30562 2.38023 8.51441 1.17148 10.0001 1.17148C11.4858 1.17148 12.6946 2.38027 12.6946 3.86598V3.94527H7.30562V3.86598ZM18.2023 18.1604C17.8031 18.5912 17.2599 18.8285 16.6726 18.8285H3.32765C2.7403 18.8285 2.1971 18.5912 1.79796 18.1604C1.39886 17.7295 1.20378 17.1696 1.24862 16.5855L3.14198 5.32793C3.15105 5.20949 3.2512 5.11676 3.36999 5.11676H6.13413V6.55953C6.13413 6.88301 6.3964 7.14527 6.71987 7.14527C7.04335 7.14527 7.30562 6.88301 7.30562 6.55953V5.11676H12.6946V6.55953C12.6946 6.88301 12.9569 7.14527 13.2803 7.14527C13.6038 7.14527 13.8661 6.88301 13.8661 6.55953V5.11676H16.6303C16.749 5.11676 16.8492 5.20953 16.8584 5.32949L18.7516 16.584C18.7965 17.1696 18.6014 17.7294 18.2023 18.1604Z" fill="black"/>
</svg>
