<svg width="20" height="20" viewBox="0 0 20 20" fill="none" xmlns="http://www.w3.org/2000/svg">
<path fill-rule="evenodd" clip-rule="evenodd" d="M8.33333 1.66667C4.65143 1.66667 1.66667 4.65143 1.66667 8.33333C1.66667 12.0152 4.65143 15 8.33333 15C12.0152 15 15 12.0152 15 8.33333C15 4.65143 12.0152 1.66667 8.33333 1.66667ZM0 8.33333C0 3.73096 3.73096 0 8.33333 0C12.9357 0 16.6667 3.73096 16.6667 8.33333C16.6667 12.9357 12.9357 16.6667 8.33333 16.6667C3.73096 16.6667 0 12.9357 0 8.33333Z" fill="black"/>
<path fill-rule="evenodd" clip-rule="evenodd" d="M13.5774 13.5774C13.9028 13.252 14.4305 13.252 14.7559 13.5774L19.7559 18.5774C20.0814 18.9028 20.0814 19.4305 19.7559 19.7559C19.4305 20.0814 18.9028 20.0814 18.5774 19.7559L13.5774 14.7559C13.252 14.4305 13.252 13.9028 13.5774 13.5774Z" fill="black"/>
</svg>
