<svg width="19" height="16" viewBox="0 0 19 16" fill="none" xmlns="http://www.w3.org/2000/svg">
<path fill-rule="evenodd" clip-rule="evenodd" d="M5.84615 1.44885C3.47991 1.44885 1.55118 3.30726 1.46458 5.63165L1.46209 5.69864C1.4621 5.6996 1.46212 5.70056 1.46213 5.70152L1.4623 5.71274L1.46212 5.72396C1.46173 5.74772 1.46154 5.77155 1.46154 5.79542C1.46154 6.33112 1.55896 6.84261 1.73656 7.31453L1.74153 7.32773L1.74598 7.34112C2.45894 9.48709 4.40469 11.2846 6.28486 12.578C7.21078 13.2149 8.09097 13.7094 8.73975 14.0445C9.05724 14.2085 9.31804 14.3336 9.5 14.418C9.68199 14.3336 9.94282 14.2084 10.2603 14.0444C10.9092 13.7093 11.7894 13.2148 12.7154 12.5778C14.5957 11.2843 16.5415 9.48668 17.2542 7.34057L17.2587 7.32719L17.2636 7.31399C17.4411 6.84222 17.5385 6.33092 17.5385 5.79542C17.5385 5.77156 17.5383 5.74775 17.5379 5.724L17.5377 5.71278L17.5379 5.70157C17.5379 5.70061 17.5379 5.69964 17.5379 5.69868L17.5354 5.63165C17.4488 3.30726 15.5201 1.44885 13.1538 1.44885C11.9268 1.44885 10.8186 1.94755 10.0219 2.75349L9.5 3.28151L8.97806 2.75349C8.18139 1.94755 7.07318 1.44885 5.84615 1.44885ZM9.5 15.213C9.21439 15.8798 9.2142 15.8797 9.21398 15.8796L9.2134 15.8794L9.21179 15.8787L9.2067 15.8765L9.18917 15.869C9.17426 15.8626 9.15297 15.8534 9.12567 15.8413C9.07107 15.8173 8.99241 15.782 8.89267 15.7359C8.69325 15.6436 8.40917 15.5075 8.06444 15.3294C7.37599 14.9738 6.4403 14.4484 5.45163 13.7683C3.50591 12.4298 1.23202 10.4093 0.362218 7.80763C0.12775 7.17988 1.28558e-10 6.50162 1.28558e-10 5.79542C1.28558e-10 5.76755 0.000198882 5.73973 0.000595515 5.71195C0.000199579 5.68233 5.22815e-07 5.65266 1.28558e-10 5.62295C-6.09673e-07 5.58965 0.00216819 5.55708 0.0062485 5.52536C0.148801 2.44975 2.70872 0 5.84615 0C7.22845 0 8.49948 0.47626 9.5 1.27116C10.5005 0.47626 11.7715 0 13.1538 0C16.2913 0 18.8512 2.44975 18.9938 5.52537C18.9978 5.55707 19 5.58964 19 5.62293C19 5.65267 18.9998 5.68237 18.9994 5.71202C18.9998 5.73978 19 5.76758 19 5.79542C19 6.50134 18.8724 7.17934 18.6381 7.8069C17.7685 10.4088 15.4945 12.4295 13.5487 13.7681C12.5599 14.4483 11.6242 14.9738 10.9357 15.3294C10.5909 15.5074 10.3068 15.6436 10.1074 15.7359C10.0076 15.782 9.92894 15.8173 9.87434 15.8413C9.84704 15.8534 9.82574 15.8626 9.81083 15.869L9.7933 15.8765L9.7882 15.8787L9.78659 15.8794L9.78602 15.8796C9.7858 15.8797 9.78561 15.8798 9.5 15.213ZM9.5 15.213L9.78561 15.8798L9.5 16L9.21439 15.8798L9.5 15.213Z" fill="black"/>
</svg>
