<svg width="21" height="18" viewBox="0 0 21 18" fill="none" xmlns="http://www.w3.org/2000/svg">
<path fill-rule="evenodd" clip-rule="evenodd" d="M10.214 16.8796C10.2142 16.8797 10.2144 16.8798 10.5 16.213L10.2144 16.8798L10.5 17L10.7856 16.8798L10.5 16.213C10.7856 16.8798 10.7858 16.8797 10.786 16.8796L10.7866 16.8794L10.7882 16.8787L10.7933 16.8765L10.8108 16.869C10.818 16.8659 10.8266 16.8622 10.8366 16.8578C10.8475 16.8531 10.8601 16.8476 10.8743 16.8413C10.9289 16.8173 11.0076 16.782 11.1074 16.7359C11.3068 16.6436 11.5909 16.5074 11.9357 16.3294C12.6242 15.9738 13.5599 15.4483 14.5487 14.7681C16.4945 13.4295 18.7685 11.4088 19.6381 8.8069C19.8724 8.17934 20 7.50134 20 6.79542C20 6.76758 19.9998 6.73978 19.9994 6.71202C19.9998 6.68237 20 6.65267 20 6.62293C20 6.58964 19.9978 6.55707 19.9938 6.52537C19.8512 3.44975 17.2913 1 14.1538 1C12.7715 1 11.5005 1.47626 10.5 2.27116C9.49948 1.47626 8.22845 1 6.84615 1C3.70872 1 1.1488 3.44975 1.00625 6.52536C1.00217 6.55708 1 6.58965 1 6.62295C1 6.65266 1.0002 6.68233 1.0006 6.71195C1.0002 6.73973 1 6.76755 1 6.79542C1 7.50162 1.12775 8.17988 1.36222 8.80763C2.23202 11.4093 4.50591 13.4298 6.45163 14.7683C7.4403 15.4484 8.37599 15.9738 9.06444 16.3294C9.40917 16.5075 9.69325 16.6436 9.89267 16.7359C9.99241 16.782 10.0711 16.8173 10.1257 16.8413C10.1408 16.848 10.154 16.8538 10.1654 16.8587C10.1746 16.8627 10.1825 16.8661 10.1892 16.869L10.2067 16.8765L10.2118 16.8787L10.2134 16.8794L10.214 16.8796Z" fill="black"/>
<path d="M10.5 16.213L10.9596 16.0161L10.5 14.9431L10.0404 16.0161L10.5 16.213ZM10.214 16.8796L10.0201 17.3405L10.0204 17.3406L10.214 16.8796ZM10.2144 16.8798L9.75478 16.6829L9.55667 17.1454L10.0204 17.3406L10.2144 16.8798ZM10.5 17L10.306 17.4608L10.5 17.5425L10.694 17.4608L10.5 17ZM10.7856 16.8798L10.9796 17.3406L11.4433 17.1454L11.2452 16.6829L10.7856 16.8798ZM10.786 16.8796L10.5921 16.4187L10.5917 16.4189L10.786 16.8796ZM10.7866 16.8794L10.9805 17.3402L10.9811 17.34L10.7866 16.8794ZM10.7882 16.8787L10.9827 17.3393L10.9837 17.3389L10.7882 16.8787ZM10.7933 16.8765L10.9888 17.3367L10.9901 17.3362L10.7933 16.8765ZM10.8108 16.869L11.0077 17.3286L11.0086 17.3282L10.8108 16.869ZM10.8366 16.8578L10.6371 16.3994L10.6371 16.3994L10.8366 16.8578ZM10.8743 16.8413L11.0759 17.2989L11.0759 17.2989L10.8743 16.8413ZM11.1074 16.7359L11.3173 17.1896L11.1074 16.7359ZM11.9357 16.3294L11.7062 15.8851L11.9357 16.3294ZM14.5487 14.7681L14.832 15.1801H14.832L14.5487 14.7681ZM19.6381 8.8069L19.1696 8.63201L19.1666 8.64016L19.1638 8.64841L19.6381 8.8069ZM19.9994 6.71202L19.4993 6.70536L19.4995 6.71917L19.9994 6.71202ZM19.9938 6.52537L19.4943 6.54852L19.4952 6.56892L19.4978 6.58918L19.9938 6.52537ZM10.5 2.27116L10.189 2.66265L10.5 2.90976L10.811 2.66265L10.5 2.27116ZM1.00625 6.52536L1.50216 6.58917L1.50477 6.56892L1.50571 6.54851L1.00625 6.52536ZM1.0006 6.71195L1.50074 6.71909L1.50055 6.70527L1.0006 6.71195ZM1.36222 8.80763L1.83642 8.64909L1.83366 8.64084L1.83061 8.63268L1.36222 8.80763ZM6.45163 14.7683L6.735 14.3564L6.45163 14.7683ZM9.06444 16.3294L8.83499 16.7736L8.83499 16.7737L9.06444 16.3294ZM9.89267 16.7359L9.68268 17.1897L9.68268 17.1897L9.89267 16.7359ZM10.1257 16.8413L10.3273 16.3838L10.3273 16.3838L10.1257 16.8413ZM10.1654 16.8587L9.96592 17.3172L9.96594 17.3172L10.1654 16.8587ZM10.1892 16.869L9.99148 17.3283L9.99231 17.3286L10.1892 16.869ZM10.2067 16.8765L10.0098 17.3361L10.0113 17.3368L10.2067 16.8765ZM10.2118 16.8787L10.0164 17.3389L10.017 17.3392L10.2118 16.8787ZM10.2134 16.8794L10.0186 17.3398L10.0195 17.3402L10.2134 16.8794ZM10.0404 16.0161C9.89757 16.3495 9.82621 16.516 9.79053 16.5991C9.77259 16.6409 9.76399 16.6608 9.75991 16.6702C9.75745 16.6759 9.75781 16.675 9.75906 16.6722C9.7595 16.6713 9.76061 16.6688 9.76211 16.6657C9.76308 16.6636 9.76688 16.6555 9.77226 16.6454C9.77493 16.6404 9.78044 16.6301 9.78813 16.6176C9.79374 16.6085 9.81158 16.5797 9.84031 16.5474C9.8608 16.5244 9.94514 16.4306 10.0953 16.3939C10.2724 16.3506 10.414 16.4213 10.4076 16.4186L10.0204 17.3406C10.0204 17.3406 10.0231 17.3417 10.0257 17.3428C10.0284 17.3439 10.0365 17.3471 10.0419 17.3491C10.056 17.3542 10.0788 17.3619 10.1077 17.3682C10.1714 17.382 10.2491 17.3857 10.3327 17.3653C10.4828 17.3286 10.5672 17.2348 10.5877 17.2118C10.6164 17.1795 10.6343 17.1506 10.6399 17.1415C10.6477 17.1289 10.6532 17.1186 10.6559 17.1135C10.6614 17.1032 10.6653 17.0949 10.6664 17.0925C10.6681 17.089 10.6694 17.086 10.6702 17.0844C10.6726 17.0791 10.6752 17.073 10.6773 17.0683C10.6822 17.0569 10.6916 17.0352 10.7094 16.9937C10.7453 16.9101 10.8168 16.7432 10.9596 16.4098L10.0404 16.0161ZM10.674 17.0766L10.9596 16.4098L10.0404 16.0161L9.75478 16.6829L10.674 17.0766ZM10.694 16.5392L10.4084 16.4189L10.0204 17.3406L10.306 17.4608L10.694 16.5392ZM10.5916 16.4189L10.306 16.5392L10.694 17.4608L10.9796 17.3406L10.5916 16.4189ZM10.0404 16.4098L10.326 17.0766L11.2452 16.6829L10.9596 16.0161L10.0404 16.4098ZM10.5917 16.4189C10.5853 16.4216 10.7273 16.3504 10.905 16.394C11.0553 16.4308 11.1397 16.5248 11.1599 16.5477C11.1886 16.58 11.2064 16.6087 11.212 16.6178C11.2196 16.6303 11.2251 16.6405 11.2278 16.6455C11.2331 16.6556 11.2369 16.6636 11.2379 16.6657C11.2394 16.6689 11.2405 16.6713 11.2409 16.6723C11.2422 16.675 11.2425 16.6759 11.2401 16.6702C11.236 16.6608 11.2274 16.6409 11.2095 16.5991C11.1738 16.516 11.1024 16.3495 10.9596 16.0161L10.0404 16.4098C10.1832 16.7432 10.2547 16.9101 10.2906 16.9937C10.3084 17.0352 10.3178 17.0569 10.3227 17.0683C10.3248 17.073 10.3274 17.0791 10.3298 17.0844C10.3306 17.086 10.3319 17.0889 10.3335 17.0925C10.3347 17.0949 10.3386 17.1032 10.344 17.1134C10.3467 17.1185 10.3523 17.1288 10.36 17.1413C10.3656 17.1504 10.3834 17.1792 10.412 17.2115C10.4323 17.2344 10.5167 17.3284 10.667 17.3652C10.8447 17.4088 10.9868 17.3376 10.9803 17.3403L10.5917 16.4189ZM10.5927 16.4185L10.5921 16.4187L10.9799 17.3405L10.9805 17.3402L10.5927 16.4185ZM10.5937 16.4181L10.5921 16.4187L10.9811 17.34L10.9827 17.3393L10.5937 16.4181ZM10.5978 16.4163L10.5927 16.4185L10.9837 17.3389L10.9888 17.3367L10.5978 16.4163ZM10.614 16.4094L10.5965 16.4169L10.9901 17.3362L11.0077 17.3286L10.614 16.4094ZM10.6371 16.3994C10.6277 16.4035 10.6197 16.407 10.6131 16.4098L11.0086 17.3282C11.0163 17.3249 11.0255 17.3209 11.0362 17.3163L10.6371 16.3994ZM10.6727 16.3838C10.6592 16.3897 10.6473 16.3949 10.6371 16.3994L11.0362 17.3163C11.0477 17.3113 11.061 17.3055 11.0759 17.2989L10.6727 16.3838ZM10.8974 16.2821C10.8006 16.3269 10.7247 16.3609 10.6727 16.3838L11.0759 17.2989C11.1332 17.2736 11.2147 17.2372 11.3173 17.1896L10.8974 16.2821ZM11.7062 15.8851C11.3686 16.0595 11.091 16.1925 10.8974 16.2821L11.3173 17.1896C11.5226 17.0947 11.8132 16.9553 12.1651 16.7736L11.7062 15.8851ZM14.2653 14.3562C13.298 15.0216 12.3812 15.5365 11.7062 15.8851L12.1651 16.7736C12.8671 16.411 13.8219 15.875 14.832 15.1801L14.2653 14.3562ZM19.1638 8.64841C18.3476 11.0909 16.188 13.0335 14.2653 14.3562L14.832 15.1801C16.8011 13.8255 19.1894 11.7268 20.1123 8.96538L19.1638 8.64841ZM19.5 6.79542C19.5 7.44068 19.3834 8.0595 19.1696 8.63201L20.1065 8.98178C20.3613 8.29918 20.5 7.56201 20.5 6.79542H19.5ZM19.4995 6.71917C19.4998 6.74452 19.5 6.76993 19.5 6.79542H20.5C20.5 6.76523 20.4998 6.73505 20.4994 6.70488L19.4995 6.71917ZM19.5 6.62293C19.5 6.65045 19.4998 6.67793 19.4995 6.70537L20.4994 6.71868C20.4998 6.68681 20.5 6.6549 20.5 6.62293H19.5ZM19.4978 6.58918C19.4992 6.60013 19.5 6.61138 19.5 6.62293H20.5C20.5 6.5679 20.4964 6.51402 20.4897 6.46156L19.4978 6.58918ZM14.1538 1.5C17.0267 1.5 19.3642 3.74231 19.4943 6.54852L20.4932 6.50222C20.3382 3.1572 17.5559 0.5 14.1538 0.5V1.5ZM10.811 2.66265C11.726 1.93568 12.8882 1.5 14.1538 1.5V0.5C12.6549 0.5 11.275 1.01684 10.189 1.87968L10.811 2.66265ZM6.84615 1.5C8.1118 1.5 9.27396 1.93568 10.189 2.66265L10.811 1.87968C9.72501 1.01684 8.3451 0.5 6.84615 0.5V1.5ZM1.50571 6.54851C1.63578 3.74231 3.97331 1.5 6.84615 1.5V0.5C3.44414 0.5 0.661824 3.1572 0.506785 6.50221L1.50571 6.54851ZM1.5 6.62295C1.5 6.61138 1.50075 6.60012 1.50216 6.58917L0.510337 6.46156C0.503585 6.51403 0.5 6.56792 0.5 6.62295H1.5ZM1.50055 6.70527C1.50018 6.67786 1.5 6.65042 1.5 6.62295H0.5C0.5 6.6549 0.500215 6.6868 0.50064 6.71863L1.50055 6.70527ZM1.5 6.79542C1.5 6.76993 1.50018 6.74449 1.50054 6.71909L0.500646 6.70481C0.500216 6.73497 0.5 6.76518 0.5 6.79542H1.5ZM1.83061 8.63268C1.61671 8.05999 1.5 7.44093 1.5 6.79542H0.5C0.5 7.56231 0.63879 8.29976 0.893823 8.98258L1.83061 8.63268ZM6.735 14.3564C4.81246 13.0338 2.65293 11.0914 1.83642 8.64909L0.888017 8.96617C1.81112 11.7273 4.19936 13.8258 6.16825 15.1802L6.735 14.3564ZM9.29388 15.8852C8.61896 15.5366 7.70222 15.0217 6.735 14.3564L6.16825 15.1802C7.17837 15.8751 8.13303 16.4111 8.83499 16.7736L9.29388 15.8852ZM10.1027 16.2821C9.90904 16.1925 9.63151 16.0595 9.29388 15.8852L8.83499 16.7737C9.18684 16.9554 9.47746 17.0947 9.68268 17.1897L10.1027 16.2821ZM10.3273 16.3838C10.2753 16.3609 10.1995 16.3269 10.1026 16.2821L9.68268 17.1897C9.78535 17.2372 9.86681 17.2737 9.92406 17.2989L10.3273 16.3838ZM10.3648 16.4002C10.3541 16.3956 10.3416 16.3901 10.3273 16.3838L9.92406 17.2989C9.9399 17.3059 9.95387 17.312 9.96592 17.3172L10.3648 16.4002ZM10.3868 16.4097C10.3808 16.4071 10.3734 16.4039 10.3648 16.4002L9.96594 17.3172C9.97571 17.3215 9.98424 17.3252 9.99149 17.3283L10.3868 16.4097ZM10.4036 16.4169L10.386 16.4094L9.99231 17.3286L10.0098 17.3361L10.4036 16.4169ZM10.4072 16.4184L10.4021 16.4163L10.0113 17.3368L10.0164 17.3389L10.4072 16.4184ZM10.4082 16.4189L10.4066 16.4182L10.017 17.3392L10.0186 17.3398L10.4082 16.4189ZM10.4079 16.4187L10.4073 16.4185L10.0195 17.3402L10.0201 17.3405L10.4079 16.4187Z" fill="black"/>
</svg>
